<svg width="128" height="128" viewBox="0 0 126 98" fill="none" xmlns="http://www.w3.org/2000/svg">
<path d="M3.76323 49.1785C0.158828 49.1785 -1.37609 44.702 1.50163 42.5827L57.9921 0.979747C60.4669 -0.842814 64.0096 0.881135 64.0096 3.90795V45.5109C64.0096 47.5364 65.6912 49.1785 67.7655 49.1785L89.0559 49.1785C92.6671 49.1785 94.1977 53.6689 91.3068 55.7822L34.8832 97.028C32.4067 98.8383 28.8764 97.1127 28.8764 94.092L28.8764 52.8461C28.8764 50.8205 27.1948 49.1785 25.1205 49.1785L3.76323 49.1785Z" fill="#57ECA7"/>
<path d="M36.3947 49.1785C32.7903 49.1785 31.2554 44.702 34.1331 42.5827L90.6236 0.979747C93.0983 -0.842814 96.6411 0.881135 96.6411 3.90795V45.5109C96.6411 47.5364 98.3227 49.1785 100.397 49.1785L121.687 49.1785C125.299 49.1785 126.829 53.6689 123.938 55.7822L67.5147 97.028C65.0382 98.8383 61.5079 97.1127 61.5079 94.092L61.5079 52.8461C61.5079 50.8205 59.8263 49.1785 57.752 49.1785L36.3947 49.1785Z" fill="#57ECA7"/>
</svg>
