<svg xmlns="http://www.w3.org/2000/svg"  viewBox="0 0 48 48" width="48px" height="48px" fill="#fff"><path d="M 12.5 4 C 9.468 4 7 6.468 7 9.5 L 7 35.5 C 7 38.532 9.468 41 12.5 41 L 36.5 41 C 39.317 41 41 38.944 41 35.5 L 41 9.5 C 41 6.468 38.532 4 35.5 4 C 32.468 4 30 6.468 30 9.5 L 30 10.5 C 30 10.775 29.775 11 29.5 11 L 18.5 11 C 18.225 11 18 10.775 18 10.5 L 18 9.5 C 18 6.468 15.532 4 12.5 4 z M 24 19 C 29.215 19 33 21.944 33 26 C 33 30.056 29.215 33 24 33 C 18.785 33 15 30.056 15 26 C 15 21.944 18.785 19 24 19 z M 19 22 A 2 2 0 0 0 19 26 A 2 2 0 0 0 19 22 z M 29 22 A 2 2 0 0 0 29 26 A 2 2 0 0 0 29 22 z M 21.507812 27 C 21.218945 26.998148 20.925969 27.079078 20.667969 27.251953 C 19.978969 27.711953 19.791953 28.643031 20.251953 29.332031 C 20.977953 30.420031 22.379 31.070312 24 31.070312 C 25.621 31.070312 27.022047 30.420031 27.748047 29.332031 C 28.208047 28.643031 28.021031 27.711953 27.332031 27.251953 C 26.644031 26.791953 25.711953 26.978969 25.251953 27.667969 C 25.140953 27.834969 24.679 28.070312 24 28.070312 C 23.321 28.070312 22.859047 27.834969 22.748047 27.667969 C 22.460547 27.237344 21.989258 27.003086 21.507812 27 z"/></svg>