<svg width="953" height="953" viewBox="0 0 953 953" fill="none" xmlns="http://www.w3.org/2000/svg">
<g clip-path="url(#clip0_1_15)">
<path d="M1 216V1C171.689 1 342.377 1 513.613 1.344C528.5 19.017 542.083 37.054 557.403 53.47C571.563 68.644 587.335 82.36 602.853 96.207C618.815 110.447 636.241 122.667 656.125 131.014C666.695 135.452 677.682 137.554 689.015 135.424C703.359 132.73 713.157 123.388 720.989 111.764C730.5 97.649 736.756 82.061 741.079 65.661C744.759 51.691 748.399 37.711 752.056 23.734C754.04 16.157 756.02 8.578 758 1H954C954 135.022 954 269.044 953.576 403.527C949.173 403.327 945.217 402.332 941.212 402.06C924.471 400.922 907.724 399.759 890.96 399.108C883.235 398.808 875.461 399.608 867.715 400.014C856.046 400.627 844.381 401.314 832.715 402.004C818.921 402.819 805.459 405.176 792.058 408.811C768.082 415.313 751.149 429.848 740.702 451.907C731.056 472.273 727.752 494.26 727.125 516.539C726.54 537.349 726.89 558.189 727.032 579.015C727.162 597.948 726.969 616.812 723.055 635.481C719.619 651.871 713.99 667.475 704.216 680.969C695.046 693.629 684.505 705.321 674.246 717.161C665.194 727.606 657.004 738.437 651.82 751.458C646.698 764.326 644.861 777.492 647.12 791.036C649.37 804.532 654.479 817.099 663.358 827.603C670.993 836.637 680.332 842.923 693.036 843.099C708.576 843.316 721.046 835.954 732.84 827.431C743.91 819.431 754.472 810.651 764.72 801.607C774.53 792.947 783.858 783.709 793.022 774.357C805.435 761.689 817.308 748.49 829.746 735.847C843.206 722.167 859.551 712.591 877.038 705.134C886.583 701.064 896.543 697.722 906.596 695.149C922.094 691.184 938.013 690.275 954 691V954C771.645 954 589.29 954 406.474 953.57C406.342 952.076 406.97 951.008 406.955 949.95C406.683 930.365 406.868 910.754 405.84 891.207C404.957 874.419 403.006 857.662 400.9 840.97C399.04 826.177 396.691 811.449 393.856 796.811C390.917 781.672 388.684 766.561 388.917 751.077C389.089 739.666 391.201 728.611 396.832 718.924C404.912 705.024 414.125 691.765 423.136 678.424C437.643 656.947 448.92 634.142 455.184 608.78C460.793 586.072 463.311 563 464.805 539.829C465.823 524.058 464.853 508.166 465.036 492.332C465.288 470.59 463.258 449.054 460.03 427.585C457.77 412.552 453.928 397.958 447.547 384.181C440.035 367.963 429.428 353.782 416.707 341.299C402.05 326.915 387.024 312.907 372.203 298.689C357.856 284.924 346.499 268.792 338.23 250.919C330.178 233.515 323.306 215.479 317.163 197.298C308.79 172.519 301.345 147.423 287.943 124.72C276.419 105.199 260.736 89.663 240.573 79.35C215.048 66.297 188.083 58.089 158.979 61.194C150.149 62.137 141.087 64.295 132.971 67.828C116.655 74.931 104.558 87.628 95.124 102.321C80.265 125.461 66.292 149.171 52.048 172.703C44.477 185.21 35.988 197.031 24.816 206.513C18.112 212.203 10.126 215.824 1 216Z" fill="black"/>
<path d="M1 216.469C10.127 215.824 18.112 212.203 24.816 206.513C35.988 197.031 44.476 185.21 52.048 172.703C66.292 149.171 80.265 125.461 95.124 102.321C104.558 87.627 116.655 74.931 132.971 67.828C141.087 64.295 150.149 62.137 158.979 61.194C188.083 58.089 215.048 66.297 240.572 79.351C260.736 89.663 276.419 105.199 287.943 124.72C301.345 147.423 308.79 172.52 317.163 197.298C323.306 215.478 330.178 233.515 338.23 250.919C346.5 268.792 357.856 284.924 372.203 298.689C387.023 312.907 402.05 326.915 416.707 341.299C429.428 353.782 440.035 367.963 447.547 384.181C453.927 397.958 457.77 412.552 460.03 427.585C463.258 449.054 465.288 470.59 465.036 492.332C464.853 508.166 465.823 524.058 464.806 539.829C463.311 563 460.793 586.072 455.184 608.779C448.92 634.142 437.643 656.947 423.136 678.424C414.125 691.765 404.913 705.024 396.832 718.924C391.201 728.611 389.089 739.666 388.917 751.077C388.684 766.561 390.917 781.672 393.857 796.811C396.692 811.449 399.041 826.177 400.901 840.971C403.006 857.661 404.957 874.419 405.841 891.207C406.868 910.754 406.683 930.365 406.955 949.95C406.97 951.008 406.342 952.076 406.007 953.57C325.979 954 245.958 954 165.469 953.535C165.333 948.319 165.719 943.57 165.989 938.815C166.686 926.479 167.285 914.138 168.015 901.805C168.607 891.797 169.039 881.767 170.064 871.8C171.829 854.62 173.43 837.39 176.169 820.352C178.665 804.82 183.171 789.759 189.865 775.338C198.098 757.598 210 742.384 221.598 726.921C233.447 711.123 238.002 693.719 231.179 674.836C225.527 659.192 218.641 643.976 211.922 628.738C202.452 607.258 197.512 584.668 195.092 561.49C193.897 550.041 193.664 538.492 193.001 526.989C191.998 509.573 191.913 492.039 189.684 474.781C188.159 462.971 184.634 451.163 180.276 440.031C170.726 415.63 150.831 399.546 131.555 383.315C118.522 372.342 104.647 362.375 91.313 351.752C77.776 340.966 63.768 330.977 47.827 323.986C40.162 320.626 32.007 318.356 23.797 319.285C16.08 320.158 8.59 323.015 1 325V216.469Z" fill="white"/>
<path d="M1 325.469C8.59 323.016 16.08 320.159 23.796 319.285C32.007 318.355 40.162 320.625 47.826 323.986C63.768 330.976 77.776 340.966 91.313 351.752C104.647 362.376 118.523 372.342 131.555 383.315C150.831 399.546 170.725 415.63 180.275 440.03C184.633 451.163 188.159 462.972 189.685 474.781C191.913 492.039 191.998 509.573 193.001 526.989C193.664 538.492 193.897 550.041 195.092 561.49C197.512 584.668 202.452 607.258 211.922 628.738C218.641 643.976 225.527 659.192 231.179 674.836C238.002 693.719 233.447 711.123 221.598 726.921C210 742.384 198.098 757.597 189.865 775.338C183.171 789.759 178.665 804.82 176.169 820.352C173.429 837.389 171.829 854.62 170.064 871.8C169.039 881.767 168.607 891.797 168.014 901.805C167.285 914.138 166.686 926.479 165.988 938.815C165.719 943.57 165.333 948.319 165 953.535C110.363 954 55.727 954 1 954V325.469Z" fill="black"/>
<path d="M954 690.531C938.013 690.275 922.094 691.184 906.596 695.149C896.543 697.722 886.583 701.065 877.038 705.134C859.551 712.591 843.206 722.167 829.746 735.847C817.308 748.49 805.436 761.689 793.022 774.357C783.858 783.709 774.53 792.947 764.72 801.607C754.472 810.652 743.91 819.431 732.84 827.431C721.046 835.954 708.577 843.316 693.036 843.099C680.332 842.922 670.993 836.637 663.358 827.603C654.478 817.099 649.37 804.532 647.12 791.036C644.861 777.492 646.698 764.326 651.82 751.458C657.004 738.437 665.194 727.606 674.246 717.161C684.505 705.321 695.046 693.63 704.216 680.969C713.99 667.475 719.619 651.87 723.056 635.481C726.969 616.812 727.162 597.948 727.032 579.015C726.89 558.189 726.54 537.349 727.125 516.539C727.752 494.26 731.056 472.273 740.702 451.907C751.149 429.848 768.082 415.313 792.058 408.811C805.459 405.176 818.921 402.819 832.716 402.004C844.381 401.314 856.046 400.627 867.716 400.014C875.461 399.607 883.235 398.808 890.96 399.108C907.724 399.758 924.47 400.922 941.212 402.06C945.217 402.332 949.172 403.326 953.576 403.994C954 499.354 954 594.708 954 690.531ZM757.531 1C756.019 8.578 754.039 16.157 752.056 23.734C748.399 37.711 744.76 51.692 741.078 65.661C736.756 82.061 730.5 97.649 720.989 111.764C713.157 123.388 703.359 132.73 689.015 135.424C677.682 137.554 666.695 135.452 656.125 131.014C636.241 122.667 618.815 110.448 602.854 96.207C587.334 82.361 571.563 68.644 557.402 53.47C542.082 37.054 528.5 19.017 514.08 1.344C595.02 1 676.043 1 757.531 1Z" fill="white"/>
</g>
<defs>
<clipPath id="clip0_1_15">
<rect width="953" height="953" rx="250" fill="white"/>
</clipPath>
</defs>
</svg>
