<?xml version="1.0" encoding="UTF-8"?>
<svg xmlns="http://www.w3.org/2000/svg" viewBox="0 0 270 270" width="270" height="270" shape-rendering="geometricPrecision">
<rect x="90" y="10" width="10" height="10" fill="#000000"/><rect x="120" y="10" width="10" height="10" fill="#000000"/><rect x="150" y="10" width="10" height="10" fill="#000000"/><rect x="90" y="20" width="10" height="10" fill="#000000"/><rect x="100" y="20" width="10" height="10" fill="#000000"/><rect x="110" y="20" width="10" height="10" fill="#000000"/><rect x="130" y="20" width="10" height="10" fill="#000000"/><rect x="140" y="20" width="10" height="10" fill="#000000"/><rect x="90" y="30" width="10" height="10" fill="#000000"/><rect x="120" y="30" width="10" height="10" fill="#000000"/><rect x="140" y="30" width="10" height="10" fill="#000000"/><rect x="150" y="30" width="10" height="10" fill="#000000"/><rect x="100" y="40" width="10" height="10" fill="#000000"/><rect x="140" y="40" width="10" height="10" fill="#000000"/><rect x="160" y="40" width="10" height="10" fill="#000000"/><rect x="170" y="40" width="10" height="10" fill="#000000"/><rect x="90" y="50" width="10" height="10" fill="#000000"/><rect x="110" y="50" width="10" height="10" fill="#000000"/><rect x="120" y="50" width="10" height="10" fill="#000000"/><rect x="130" y="50" width="10" height="10" fill="#000000"/><rect x="150" y="50" width="10" height="10" fill="#000000"/><rect x="150" y="60" width="10" height="10" fill="#000000"/><rect x="90" y="70" width="10" height="10" fill="#000000"/><rect x="110" y="70" width="10" height="10" fill="#000000"/><rect x="130" y="70" width="10" height="10" fill="#000000"/><rect x="150" y="70" width="10" height="10" fill="#000000"/><rect x="170" y="70" width="10" height="10" fill="#000000"/><rect x="100" y="80" width="10" height="10" fill="#000000"/><rect x="110" y="80" width="10" height="10" fill="#000000"/><rect x="140" y="80" width="10" height="10" fill="#000000"/><rect x="170" y="80" width="10" height="10" fill="#000000"/><rect x="10" y="90" width="10" height="10" fill="#000000"/><rect x="40" y="90" width="10" height="10" fill="#000000"/><rect x="50" y="90" width="10" height="10" fill="#000000"/><rect x="60" y="90" width="10" height="10" fill="#000000"/><rect x="70" y="90" width="10" height="10" fill="#000000"/><rect x="80" y="90" width="10" height="10" fill="#000000"/><rect x="90" y="90" width="10" height="10" fill="#000000"/><rect x="100" y="90" width="10" height="10" fill="#000000"/><rect x="130" y="90" width="10" height="10" fill="#000000"/><rect x="170" y="90" width="10" height="10" fill="#000000"/><rect x="180" y="90" width="10" height="10" fill="#000000"/><rect x="210" y="90" width="10" height="10" fill="#000000"/><rect x="230" y="90" width="10" height="10" fill="#000000"/><rect x="240" y="90" width="10" height="10" fill="#000000"/><rect x="250" y="90" width="10" height="10" fill="#000000"/><rect x="40" y="100" width="10" height="10" fill="#000000"/><rect x="110" y="100" width="10" height="10" fill="#000000"/><rect x="130" y="100" width="10" height="10" fill="#000000"/><rect x="140" y="100" width="10" height="10" fill="#000000"/><rect x="150" y="100" width="10" height="10" fill="#000000"/><rect x="160" y="100" width="10" height="10" fill="#000000"/><rect x="200" y="100" width="10" height="10" fill="#000000"/><rect x="210" y="100" width="10" height="10" fill="#000000"/><rect x="220" y="100" width="10" height="10" fill="#000000"/><rect x="230" y="100" width="10" height="10" fill="#000000"/><rect x="240" y="100" width="10" height="10" fill="#000000"/><rect x="40" y="110" width="10" height="10" fill="#000000"/><rect x="50" y="110" width="10" height="10" fill="#000000"/><rect x="70" y="110" width="10" height="10" fill="#000000"/><rect x="80" y="110" width="10" height="10" fill="#000000"/><rect x="90" y="110" width="10" height="10" fill="#000000"/><rect x="100" y="110" width="10" height="10" fill="#000000"/><rect x="110" y="110" width="10" height="10" fill="#000000"/><rect x="140" y="110" width="10" height="10" fill="#000000"/><rect x="160" y="110" width="10" height="10" fill="#000000"/><rect x="170" y="110" width="10" height="10" fill="#000000"/><rect x="190" y="110" width="10" height="10" fill="#000000"/><rect x="210" y="110" width="10" height="10" fill="#000000"/><rect x="220" y="110" width="10" height="10" fill="#000000"/><rect x="250" y="110" width="10" height="10" fill="#000000"/><rect x="10" y="120" width="10" height="10" fill="#000000"/><rect x="30" y="120" width="10" height="10" fill="#000000"/><rect x="50" y="120" width="10" height="10" fill="#000000"/><rect x="130" y="120" width="10" height="10" fill="#000000"/><rect x="150" y="120" width="10" height="10" fill="#000000"/><rect x="190" y="120" width="10" height="10" fill="#000000"/><rect x="200" y="120" width="10" height="10" fill="#000000"/><rect x="210" y="120" width="10" height="10" fill="#000000"/><rect x="220" y="120" width="10" height="10" fill="#000000"/><rect x="230" y="120" width="10" height="10" fill="#000000"/><rect x="240" y="120" width="10" height="10" fill="#000000"/><rect x="250" y="120" width="10" height="10" fill="#000000"/><rect x="30" y="130" width="10" height="10" fill="#000000"/><rect x="50" y="130" width="10" height="10" fill="#000000"/><rect x="70" y="130" width="10" height="10" fill="#000000"/><rect x="90" y="130" width="10" height="10" fill="#000000"/><rect x="120" y="130" width="10" height="10" fill="#000000"/><rect x="130" y="130" width="10" height="10" fill="#000000"/><rect x="160" y="130" width="10" height="10" fill="#000000"/><rect x="190" y="130" width="10" height="10" fill="#000000"/><rect x="200" y="130" width="10" height="10" fill="#000000"/><rect x="250" y="130" width="10" height="10" fill="#000000"/><rect x="10" y="140" width="10" height="10" fill="#000000"/><rect x="90" y="140" width="10" height="10" fill="#000000"/><rect x="110" y="140" width="10" height="10" fill="#000000"/><rect x="130" y="140" width="10" height="10" fill="#000000"/><rect x="140" y="140" width="10" height="10" fill="#000000"/><rect x="160" y="140" width="10" height="10" fill="#000000"/><rect x="170" y="140" width="10" height="10" fill="#000000"/><rect x="210" y="140" width="10" height="10" fill="#000000"/><rect x="240" y="140" width="10" height="10" fill="#000000"/><rect x="10" y="150" width="10" height="10" fill="#000000"/><rect x="20" y="150" width="10" height="10" fill="#000000"/><rect x="60" y="150" width="10" height="10" fill="#000000"/><rect x="70" y="150" width="10" height="10" fill="#000000"/><rect x="80" y="150" width="10" height="10" fill="#000000"/><rect x="90" y="150" width="10" height="10" fill="#000000"/><rect x="100" y="150" width="10" height="10" fill="#000000"/><rect x="110" y="150" width="10" height="10" fill="#000000"/><rect x="160" y="150" width="10" height="10" fill="#000000"/><rect x="180" y="150" width="10" height="10" fill="#000000"/><rect x="210" y="150" width="10" height="10" fill="#000000"/><rect x="220" y="150" width="10" height="10" fill="#000000"/><rect x="230" y="150" width="10" height="10" fill="#000000"/><rect x="240" y="150" width="10" height="10" fill="#000000"/><rect x="250" y="150" width="10" height="10" fill="#000000"/><rect x="10" y="160" width="10" height="10" fill="#000000"/><rect x="30" y="160" width="10" height="10" fill="#000000"/><rect x="40" y="160" width="10" height="10" fill="#000000"/><rect x="50" y="160" width="10" height="10" fill="#000000"/><rect x="80" y="160" width="10" height="10" fill="#000000"/><rect x="90" y="160" width="10" height="10" fill="#000000"/><rect x="100" y="160" width="10" height="10" fill="#000000"/><rect x="110" y="160" width="10" height="10" fill="#000000"/><rect x="120" y="160" width="10" height="10" fill="#000000"/><rect x="150" y="160" width="10" height="10" fill="#000000"/><rect x="160" y="160" width="10" height="10" fill="#000000"/><rect x="200" y="160" width="10" height="10" fill="#000000"/><rect x="220" y="160" width="10" height="10" fill="#000000"/><rect x="230" y="160" width="10" height="10" fill="#000000"/><rect x="250" y="160" width="10" height="10" fill="#000000"/><rect x="10" y="170" width="10" height="10" fill="#000000"/><rect x="60" y="170" width="10" height="10" fill="#000000"/><rect x="70" y="170" width="10" height="10" fill="#000000"/><rect x="130" y="170" width="10" height="10" fill="#000000"/><rect x="140" y="170" width="10" height="10" fill="#000000"/><rect x="160" y="170" width="10" height="10" fill="#000000"/><rect x="170" y="170" width="10" height="10" fill="#000000"/><rect x="180" y="170" width="10" height="10" fill="#000000"/><rect x="190" y="170" width="10" height="10" fill="#000000"/><rect x="200" y="170" width="10" height="10" fill="#000000"/><rect x="210" y="170" width="10" height="10" fill="#000000"/><rect x="230" y="170" width="10" height="10" fill="#000000"/><rect x="240" y="170" width="10" height="10" fill="#000000"/><rect x="90" y="180" width="10" height="10" fill="#000000"/><rect x="100" y="180" width="10" height="10" fill="#000000"/><rect x="110" y="180" width="10" height="10" fill="#000000"/><rect x="130" y="180" width="10" height="10" fill="#000000"/><rect x="170" y="180" width="10" height="10" fill="#000000"/><rect x="210" y="180" width="10" height="10" fill="#000000"/><rect x="230" y="180" width="10" height="10" fill="#000000"/><rect x="240" y="180" width="10" height="10" fill="#000000"/><rect x="90" y="190" width="10" height="10" fill="#000000"/><rect x="110" y="190" width="10" height="10" fill="#000000"/><rect x="120" y="190" width="10" height="10" fill="#000000"/><rect x="130" y="190" width="10" height="10" fill="#000000"/><rect x="140" y="190" width="10" height="10" fill="#000000"/><rect x="170" y="190" width="10" height="10" fill="#000000"/><rect x="190" y="190" width="10" height="10" fill="#000000"/><rect x="210" y="190" width="10" height="10" fill="#000000"/><rect x="250" y="190" width="10" height="10" fill="#000000"/><rect x="90" y="200" width="10" height="10" fill="#000000"/><rect x="100" y="200" width="10" height="10" fill="#000000"/><rect x="140" y="200" width="10" height="10" fill="#000000"/><rect x="160" y="200" width="10" height="10" fill="#000000"/><rect x="170" y="200" width="10" height="10" fill="#000000"/><rect x="210" y="200" width="10" height="10" fill="#000000"/><rect x="90" y="210" width="10" height="10" fill="#000000"/><rect x="150" y="210" width="10" height="10" fill="#000000"/><rect x="160" y="210" width="10" height="10" fill="#000000"/><rect x="170" y="210" width="10" height="10" fill="#000000"/><rect x="180" y="210" width="10" height="10" fill="#000000"/><rect x="190" y="210" width="10" height="10" fill="#000000"/><rect x="200" y="210" width="10" height="10" fill="#000000"/><rect x="210" y="210" width="10" height="10" fill="#000000"/><rect x="90" y="220" width="10" height="10" fill="#000000"/><rect x="100" y="220" width="10" height="10" fill="#000000"/><rect x="110" y="220" width="10" height="10" fill="#000000"/><rect x="120" y="220" width="10" height="10" fill="#000000"/><rect x="150" y="220" width="10" height="10" fill="#000000"/><rect x="180" y="220" width="10" height="10" fill="#000000"/><rect x="190" y="220" width="10" height="10" fill="#000000"/><rect x="240" y="220" width="10" height="10" fill="#000000"/><rect x="250" y="220" width="10" height="10" fill="#000000"/><rect x="100" y="230" width="10" height="10" fill="#000000"/><rect x="120" y="230" width="10" height="10" fill="#000000"/><rect x="150" y="230" width="10" height="10" fill="#000000"/><rect x="160" y="230" width="10" height="10" fill="#000000"/><rect x="180" y="230" width="10" height="10" fill="#000000"/><rect x="210" y="230" width="10" height="10" fill="#000000"/><rect x="220" y="230" width="10" height="10" fill="#000000"/><rect x="230" y="230" width="10" height="10" fill="#000000"/><rect x="240" y="230" width="10" height="10" fill="#000000"/><rect x="250" y="230" width="10" height="10" fill="#000000"/><rect x="130" y="240" width="10" height="10" fill="#000000"/><rect x="150" y="240" width="10" height="10" fill="#000000"/><rect x="160" y="240" width="10" height="10" fill="#000000"/><rect x="180" y="240" width="10" height="10" fill="#000000"/><rect x="190" y="240" width="10" height="10" fill="#000000"/><rect x="200" y="240" width="10" height="10" fill="#000000"/><rect x="210" y="240" width="10" height="10" fill="#000000"/><rect x="230" y="240" width="10" height="10" fill="#000000"/><rect x="240" y="240" width="10" height="10" fill="#000000"/><rect x="250" y="240" width="10" height="10" fill="#000000"/><rect x="90" y="250" width="10" height="10" fill="#000000"/><rect x="100" y="250" width="10" height="10" fill="#000000"/><rect x="120" y="250" width="10" height="10" fill="#000000"/><rect x="130" y="250" width="10" height="10" fill="#000000"/><rect x="170" y="250" width="10" height="10" fill="#000000"/><rect x="190" y="250" width="10" height="10" fill="#000000"/><rect x="220" y="250" width="10" height="10" fill="#000000"/><rect x="250" y="250" width="10" height="10" fill="#000000"/><path d="M 30 10 L 60 10 Q 80 10 80 30 L 80 60 Q 80 80 60 80 L 30 80 Q 10 80 10 60 L 10 30 Q 10 10 30 10 Z M 35 20 L 55 20 Q 70 20 70 35 L 70 55 Q 70 70 55 70 L 35 70 Q 20 70 20 55 L 20 35 Q 20 20 35 20 Z" fill="#000000" fill-rule="evenodd"/><circle cx="45" cy="45" r="15" fill="#000000"/><path d="M 210 10 L 240 10 Q 260 10 260 30 L 260 60 Q 260 80 240 80 L 210 80 Q 190 80 190 60 L 190 30 Q 190 10 210 10 Z M 215 20 L 235 20 Q 250 20 250 35 L 250 55 Q 250 70 235 70 L 215 70 Q 200 70 200 55 L 200 35 Q 200 20 215 20 Z" fill="#000000" fill-rule="evenodd"/><circle cx="225" cy="45" r="15" fill="#000000"/><path d="M 30 190 L 60 190 Q 80 190 80 210 L 80 240 Q 80 260 60 260 L 30 260 Q 10 260 10 240 L 10 210 Q 10 190 30 190 Z M 35 200 L 55 200 Q 70 200 70 215 L 70 235 Q 70 250 55 250 L 35 250 Q 20 250 20 235 L 20 215 Q 20 200 35 200 Z" fill="#000000" fill-rule="evenodd"/><circle cx="45" cy="225" r="15" fill="#000000"/>
</svg>