<?xml version="1.0" encoding="UTF-8"?>
<svg xmlns="http://www.w3.org/2000/svg" viewBox="0 0 270 270" width="270" height="270" shape-rendering="crispEdges">
<rect x="90" y="10" width="10" height="10" fill="#000000"/><rect x="100" y="10" width="10" height="10" fill="#000000"/><rect x="110" y="10" width="10" height="10" fill="#000000"/><rect x="120" y="10" width="10" height="10" fill="#000000"/><rect x="150" y="10" width="10" height="10" fill="#000000"/><rect x="90" y="20" width="10" height="10" fill="#000000"/><rect x="110" y="20" width="10" height="10" fill="#000000"/><rect x="120" y="20" width="10" height="10" fill="#000000"/><rect x="140" y="20" width="10" height="10" fill="#000000"/><rect x="90" y="30" width="10" height="10" fill="#000000"/><rect x="110" y="30" width="10" height="10" fill="#000000"/><rect x="120" y="30" width="10" height="10" fill="#000000"/><rect x="140" y="30" width="10" height="10" fill="#000000"/><rect x="150" y="30" width="10" height="10" fill="#000000"/><rect x="110" y="40" width="10" height="10" fill="#000000"/><rect x="120" y="40" width="10" height="10" fill="#000000"/><rect x="140" y="40" width="10" height="10" fill="#000000"/><rect x="160" y="40" width="10" height="10" fill="#000000"/><rect x="170" y="40" width="10" height="10" fill="#000000"/><rect x="90" y="50" width="10" height="10" fill="#000000"/><rect x="120" y="50" width="10" height="10" fill="#000000"/><rect x="130" y="50" width="10" height="10" fill="#000000"/><rect x="150" y="50" width="10" height="10" fill="#000000"/><rect x="100" y="60" width="10" height="10" fill="#000000"/><rect x="110" y="60" width="10" height="10" fill="#000000"/><rect x="130" y="60" width="10" height="10" fill="#000000"/><rect x="150" y="60" width="10" height="10" fill="#000000"/><rect x="90" y="70" width="10" height="10" fill="#000000"/><rect x="110" y="70" width="10" height="10" fill="#000000"/><rect x="130" y="70" width="10" height="10" fill="#000000"/><rect x="150" y="70" width="10" height="10" fill="#000000"/><rect x="170" y="70" width="10" height="10" fill="#000000"/><rect x="100" y="80" width="10" height="10" fill="#000000"/><rect x="120" y="80" width="10" height="10" fill="#000000"/><rect x="130" y="80" width="10" height="10" fill="#000000"/><rect x="140" y="80" width="10" height="10" fill="#000000"/><rect x="170" y="80" width="10" height="10" fill="#000000"/><rect x="10" y="90" width="10" height="10" fill="#000000"/><rect x="40" y="90" width="10" height="10" fill="#000000"/><rect x="50" y="90" width="10" height="10" fill="#000000"/><rect x="60" y="90" width="10" height="10" fill="#000000"/><rect x="70" y="90" width="10" height="10" fill="#000000"/><rect x="80" y="90" width="10" height="10" fill="#000000"/><rect x="90" y="90" width="10" height="10" fill="#000000"/><rect x="170" y="90" width="10" height="10" fill="#000000"/><rect x="180" y="90" width="10" height="10" fill="#000000"/><rect x="210" y="90" width="10" height="10" fill="#000000"/><rect x="230" y="90" width="10" height="10" fill="#000000"/><rect x="240" y="90" width="10" height="10" fill="#000000"/><rect x="250" y="90" width="10" height="10" fill="#000000"/><rect x="10" y="100" width="10" height="10" fill="#000000"/><rect x="20" y="100" width="10" height="10" fill="#000000"/><rect x="30" y="100" width="10" height="10" fill="#000000"/><rect x="40" y="100" width="10" height="10" fill="#000000"/><rect x="90" y="100" width="10" height="10" fill="#000000"/><rect x="120" y="100" width="10" height="10" fill="#000000"/><rect x="130" y="100" width="10" height="10" fill="#000000"/><rect x="140" y="100" width="10" height="10" fill="#000000"/><rect x="150" y="100" width="10" height="10" fill="#000000"/><rect x="160" y="100" width="10" height="10" fill="#000000"/><rect x="200" y="100" width="10" height="10" fill="#000000"/><rect x="210" y="100" width="10" height="10" fill="#000000"/><rect x="220" y="100" width="10" height="10" fill="#000000"/><rect x="230" y="100" width="10" height="10" fill="#000000"/><rect x="240" y="100" width="10" height="10" fill="#000000"/><rect x="10" y="110" width="10" height="10" fill="#000000"/><rect x="70" y="110" width="10" height="10" fill="#000000"/><rect x="80" y="110" width="10" height="10" fill="#000000"/><rect x="120" y="110" width="10" height="10" fill="#000000"/><rect x="140" y="110" width="10" height="10" fill="#000000"/><rect x="160" y="110" width="10" height="10" fill="#000000"/><rect x="170" y="110" width="10" height="10" fill="#000000"/><rect x="190" y="110" width="10" height="10" fill="#000000"/><rect x="210" y="110" width="10" height="10" fill="#000000"/><rect x="220" y="110" width="10" height="10" fill="#000000"/><rect x="250" y="110" width="10" height="10" fill="#000000"/><rect x="10" y="120" width="10" height="10" fill="#000000"/><rect x="20" y="120" width="10" height="10" fill="#000000"/><rect x="30" y="120" width="10" height="10" fill="#000000"/><rect x="40" y="120" width="10" height="10" fill="#000000"/><rect x="60" y="120" width="10" height="10" fill="#000000"/><rect x="110" y="120" width="10" height="10" fill="#000000"/><rect x="120" y="120" width="10" height="10" fill="#000000"/><rect x="150" y="120" width="10" height="10" fill="#000000"/><rect x="190" y="120" width="10" height="10" fill="#000000"/><rect x="200" y="120" width="10" height="10" fill="#000000"/><rect x="210" y="120" width="10" height="10" fill="#000000"/><rect x="220" y="120" width="10" height="10" fill="#000000"/><rect x="230" y="120" width="10" height="10" fill="#000000"/><rect x="240" y="120" width="10" height="10" fill="#000000"/><rect x="250" y="120" width="10" height="10" fill="#000000"/><rect x="20" y="130" width="10" height="10" fill="#000000"/><rect x="40" y="130" width="10" height="10" fill="#000000"/><rect x="70" y="130" width="10" height="10" fill="#000000"/><rect x="80" y="130" width="10" height="10" fill="#000000"/><rect x="100" y="130" width="10" height="10" fill="#000000"/><rect x="120" y="130" width="10" height="10" fill="#000000"/><rect x="140" y="130" width="10" height="10" fill="#000000"/><rect x="150" y="130" width="10" height="10" fill="#000000"/><rect x="160" y="130" width="10" height="10" fill="#000000"/><rect x="190" y="130" width="10" height="10" fill="#000000"/><rect x="200" y="130" width="10" height="10" fill="#000000"/><rect x="250" y="130" width="10" height="10" fill="#000000"/><rect x="10" y="140" width="10" height="10" fill="#000000"/><rect x="30" y="140" width="10" height="10" fill="#000000"/><rect x="60" y="140" width="10" height="10" fill="#000000"/><rect x="80" y="140" width="10" height="10" fill="#000000"/><rect x="90" y="140" width="10" height="10" fill="#000000"/><rect x="100" y="140" width="10" height="10" fill="#000000"/><rect x="110" y="140" width="10" height="10" fill="#000000"/><rect x="130" y="140" width="10" height="10" fill="#000000"/><rect x="150" y="140" width="10" height="10" fill="#000000"/><rect x="160" y="140" width="10" height="10" fill="#000000"/><rect x="170" y="140" width="10" height="10" fill="#000000"/><rect x="210" y="140" width="10" height="10" fill="#000000"/><rect x="240" y="140" width="10" height="10" fill="#000000"/><rect x="10" y="150" width="10" height="10" fill="#000000"/><rect x="20" y="150" width="10" height="10" fill="#000000"/><rect x="30" y="150" width="10" height="10" fill="#000000"/><rect x="40" y="150" width="10" height="10" fill="#000000"/><rect x="70" y="150" width="10" height="10" fill="#000000"/><rect x="100" y="150" width="10" height="10" fill="#000000"/><rect x="150" y="150" width="10" height="10" fill="#000000"/><rect x="160" y="150" width="10" height="10" fill="#000000"/><rect x="180" y="150" width="10" height="10" fill="#000000"/><rect x="210" y="150" width="10" height="10" fill="#000000"/><rect x="220" y="150" width="10" height="10" fill="#000000"/><rect x="230" y="150" width="10" height="10" fill="#000000"/><rect x="240" y="150" width="10" height="10" fill="#000000"/><rect x="250" y="150" width="10" height="10" fill="#000000"/><rect x="10" y="160" width="10" height="10" fill="#000000"/><rect x="30" y="160" width="10" height="10" fill="#000000"/><rect x="40" y="160" width="10" height="10" fill="#000000"/><rect x="60" y="160" width="10" height="10" fill="#000000"/><rect x="90" y="160" width="10" height="10" fill="#000000"/><rect x="110" y="160" width="10" height="10" fill="#000000"/><rect x="130" y="160" width="10" height="10" fill="#000000"/><rect x="140" y="160" width="10" height="10" fill="#000000"/><rect x="150" y="160" width="10" height="10" fill="#000000"/><rect x="160" y="160" width="10" height="10" fill="#000000"/><rect x="200" y="160" width="10" height="10" fill="#000000"/><rect x="220" y="160" width="10" height="10" fill="#000000"/><rect x="230" y="160" width="10" height="10" fill="#000000"/><rect x="250" y="160" width="10" height="10" fill="#000000"/><rect x="10" y="170" width="10" height="10" fill="#000000"/><rect x="40" y="170" width="10" height="10" fill="#000000"/><rect x="70" y="170" width="10" height="10" fill="#000000"/><rect x="100" y="170" width="10" height="10" fill="#000000"/><rect x="110" y="170" width="10" height="10" fill="#000000"/><rect x="120" y="170" width="10" height="10" fill="#000000"/><rect x="130" y="170" width="10" height="10" fill="#000000"/><rect x="160" y="170" width="10" height="10" fill="#000000"/><rect x="170" y="170" width="10" height="10" fill="#000000"/><rect x="180" y="170" width="10" height="10" fill="#000000"/><rect x="190" y="170" width="10" height="10" fill="#000000"/><rect x="200" y="170" width="10" height="10" fill="#000000"/><rect x="210" y="170" width="10" height="10" fill="#000000"/><rect x="230" y="170" width="10" height="10" fill="#000000"/><rect x="240" y="170" width="10" height="10" fill="#000000"/><rect x="90" y="180" width="10" height="10" fill="#000000"/><rect x="100" y="180" width="10" height="10" fill="#000000"/><rect x="120" y="180" width="10" height="10" fill="#000000"/><rect x="170" y="180" width="10" height="10" fill="#000000"/><rect x="210" y="180" width="10" height="10" fill="#000000"/><rect x="230" y="180" width="10" height="10" fill="#000000"/><rect x="240" y="180" width="10" height="10" fill="#000000"/><rect x="90" y="190" width="10" height="10" fill="#000000"/><rect x="130" y="190" width="10" height="10" fill="#000000"/><rect x="140" y="190" width="10" height="10" fill="#000000"/><rect x="150" y="190" width="10" height="10" fill="#000000"/><rect x="170" y="190" width="10" height="10" fill="#000000"/><rect x="190" y="190" width="10" height="10" fill="#000000"/><rect x="210" y="190" width="10" height="10" fill="#000000"/><rect x="250" y="190" width="10" height="10" fill="#000000"/><rect x="90" y="200" width="10" height="10" fill="#000000"/><rect x="100" y="200" width="10" height="10" fill="#000000"/><rect x="110" y="200" width="10" height="10" fill="#000000"/><rect x="120" y="200" width="10" height="10" fill="#000000"/><rect x="140" y="200" width="10" height="10" fill="#000000"/><rect x="160" y="200" width="10" height="10" fill="#000000"/><rect x="170" y="200" width="10" height="10" fill="#000000"/><rect x="210" y="200" width="10" height="10" fill="#000000"/><rect x="250" y="200" width="10" height="10" fill="#000000"/><rect x="90" y="210" width="10" height="10" fill="#000000"/><rect x="100" y="210" width="10" height="10" fill="#000000"/><rect x="120" y="210" width="10" height="10" fill="#000000"/><rect x="140" y="210" width="10" height="10" fill="#000000"/><rect x="160" y="210" width="10" height="10" fill="#000000"/><rect x="170" y="210" width="10" height="10" fill="#000000"/><rect x="180" y="210" width="10" height="10" fill="#000000"/><rect x="190" y="210" width="10" height="10" fill="#000000"/><rect x="200" y="210" width="10" height="10" fill="#000000"/><rect x="210" y="210" width="10" height="10" fill="#000000"/><rect x="240" y="210" width="10" height="10" fill="#000000"/><rect x="250" y="210" width="10" height="10" fill="#000000"/><rect x="90" y="220" width="10" height="10" fill="#000000"/><rect x="130" y="220" width="10" height="10" fill="#000000"/><rect x="140" y="220" width="10" height="10" fill="#000000"/><rect x="180" y="220" width="10" height="10" fill="#000000"/><rect x="190" y="220" width="10" height="10" fill="#000000"/><rect x="240" y="220" width="10" height="10" fill="#000000"/><rect x="250" y="220" width="10" height="10" fill="#000000"/><rect x="110" y="230" width="10" height="10" fill="#000000"/><rect x="120" y="230" width="10" height="10" fill="#000000"/><rect x="140" y="230" width="10" height="10" fill="#000000"/><rect x="160" y="230" width="10" height="10" fill="#000000"/><rect x="180" y="230" width="10" height="10" fill="#000000"/><rect x="210" y="230" width="10" height="10" fill="#000000"/><rect x="220" y="230" width="10" height="10" fill="#000000"/><rect x="230" y="230" width="10" height="10" fill="#000000"/><rect x="240" y="230" width="10" height="10" fill="#000000"/><rect x="250" y="230" width="10" height="10" fill="#000000"/><rect x="120" y="240" width="10" height="10" fill="#000000"/><rect x="130" y="240" width="10" height="10" fill="#000000"/><rect x="140" y="240" width="10" height="10" fill="#000000"/><rect x="160" y="240" width="10" height="10" fill="#000000"/><rect x="180" y="240" width="10" height="10" fill="#000000"/><rect x="190" y="240" width="10" height="10" fill="#000000"/><rect x="200" y="240" width="10" height="10" fill="#000000"/><rect x="210" y="240" width="10" height="10" fill="#000000"/><rect x="230" y="240" width="10" height="10" fill="#000000"/><rect x="240" y="240" width="10" height="10" fill="#000000"/><rect x="250" y="240" width="10" height="10" fill="#000000"/><rect x="90" y="250" width="10" height="10" fill="#000000"/><rect x="100" y="250" width="10" height="10" fill="#000000"/><rect x="110" y="250" width="10" height="10" fill="#000000"/><rect x="120" y="250" width="10" height="10" fill="#000000"/><rect x="130" y="250" width="10" height="10" fill="#000000"/><rect x="140" y="250" width="10" height="10" fill="#000000"/><rect x="170" y="250" width="10" height="10" fill="#000000"/><rect x="190" y="250" width="10" height="10" fill="#000000"/><rect x="220" y="250" width="10" height="10" fill="#000000"/><rect x="250" y="250" width="10" height="10" fill="#000000"/><path d="M 10 10 L 80 10 L 80 80 L 10 80 Z M 20 20 L 70 20 L 70 70 L 20 70 Z" fill="#000000" fill-rule="evenodd" shape-rendering="crispEdges"/><rect x="30" y="30" width="30" height="30" fill="#000000" shape-rendering="crispEdges"/><path d="M 190 10 L 260 10 L 260 80 L 190 80 Z M 200 20 L 250 20 L 250 70 L 200 70 Z" fill="#000000" fill-rule="evenodd" shape-rendering="crispEdges"/><rect x="210" y="30" width="30" height="30" fill="#000000" shape-rendering="crispEdges"/><path d="M 10 190 L 80 190 L 80 260 L 10 260 Z M 20 200 L 70 200 L 70 250 L 20 250 Z" fill="#000000" fill-rule="evenodd" shape-rendering="crispEdges"/><rect x="30" y="210" width="30" height="30" fill="#000000" shape-rendering="crispEdges"/>
</svg>