<?xml version="1.0" encoding="UTF-8"?>
<svg xmlns="http://www.w3.org/2000/svg" viewBox="0 0 310 310" width="310" height="310" shape-rendering="geometricPrecision">
<rect x="110" y="10" width="10" height="10" fill="#000000"/><rect x="120" y="10" width="10" height="10" fill="#000000"/><rect x="160" y="10" width="10" height="10" fill="#000000"/><rect x="170" y="10" width="10" height="10" fill="#000000"/><rect x="180" y="10" width="10" height="10" fill="#000000"/><rect x="190" y="10" width="10" height="10" fill="#000000"/><rect x="200" y="10" width="10" height="10" fill="#000000"/><rect x="100" y="20" width="10" height="10" fill="#000000"/><rect x="110" y="20" width="10" height="10" fill="#000000"/><rect x="180" y="20" width="10" height="10" fill="#000000"/><rect x="210" y="20" width="10" height="10" fill="#000000"/><rect x="90" y="30" width="10" height="10" fill="#000000"/><rect x="120" y="30" width="10" height="10" fill="#000000"/><rect x="130" y="30" width="10" height="10" fill="#000000"/><rect x="150" y="30" width="10" height="10" fill="#000000"/><rect x="170" y="30" width="10" height="10" fill="#000000"/><rect x="210" y="30" width="10" height="10" fill="#000000"/><rect x="90" y="40" width="10" height="10" fill="#000000"/><rect x="100" y="40" width="10" height="10" fill="#000000"/><rect x="110" y="40" width="10" height="10" fill="#000000"/><rect x="120" y="40" width="10" height="10" fill="#000000"/><rect x="170" y="40" width="10" height="10" fill="#000000"/><rect x="180" y="40" width="10" height="10" fill="#000000"/><rect x="210" y="40" width="10" height="10" fill="#000000"/><rect x="90" y="50" width="10" height="10" fill="#000000"/><rect x="130" y="50" width="10" height="10" fill="#000000"/><rect x="140" y="50" width="10" height="10" fill="#000000"/><rect x="150" y="50" width="10" height="10" fill="#000000"/><rect x="160" y="50" width="10" height="10" fill="#000000"/><rect x="200" y="50" width="10" height="10" fill="#000000"/><rect x="210" y="50" width="10" height="10" fill="#000000"/><rect x="90" y="60" width="10" height="10" fill="#000000"/><rect x="120" y="60" width="10" height="10" fill="#000000"/><rect x="130" y="60" width="10" height="10" fill="#000000"/><rect x="140" y="60" width="10" height="10" fill="#000000"/><rect x="150" y="60" width="10" height="10" fill="#000000"/><rect x="160" y="60" width="10" height="10" fill="#000000"/><rect x="170" y="60" width="10" height="10" fill="#000000"/><rect x="180" y="60" width="10" height="10" fill="#000000"/><rect x="90" y="70" width="10" height="10" fill="#000000"/><rect x="110" y="70" width="10" height="10" fill="#000000"/><rect x="130" y="70" width="10" height="10" fill="#000000"/><rect x="150" y="70" width="10" height="10" fill="#000000"/><rect x="170" y="70" width="10" height="10" fill="#000000"/><rect x="190" y="70" width="10" height="10" fill="#000000"/><rect x="210" y="70" width="10" height="10" fill="#000000"/><rect x="90" y="80" width="10" height="10" fill="#000000"/><rect x="100" y="80" width="10" height="10" fill="#000000"/><rect x="120" y="80" width="10" height="10" fill="#000000"/><rect x="130" y="80" width="10" height="10" fill="#000000"/><rect x="140" y="80" width="10" height="10" fill="#000000"/><rect x="160" y="80" width="10" height="10" fill="#000000"/><rect x="190" y="80" width="10" height="10" fill="#000000"/><rect x="200" y="80" width="10" height="10" fill="#000000"/><rect x="10" y="90" width="10" height="10" fill="#000000"/><rect x="30" y="90" width="10" height="10" fill="#000000"/><rect x="40" y="90" width="10" height="10" fill="#000000"/><rect x="50" y="90" width="10" height="10" fill="#000000"/><rect x="60" y="90" width="10" height="10" fill="#000000"/><rect x="70" y="90" width="10" height="10" fill="#000000"/><rect x="120" y="90" width="10" height="10" fill="#000000"/><rect x="130" y="90" width="10" height="10" fill="#000000"/><rect x="150" y="90" width="10" height="10" fill="#000000"/><rect x="160" y="90" width="10" height="10" fill="#000000"/><rect x="180" y="90" width="10" height="10" fill="#000000"/><rect x="210" y="90" width="10" height="10" fill="#000000"/><rect x="230" y="90" width="10" height="10" fill="#000000"/><rect x="240" y="90" width="10" height="10" fill="#000000"/><rect x="250" y="90" width="10" height="10" fill="#000000"/><rect x="260" y="90" width="10" height="10" fill="#000000"/><rect x="270" y="90" width="10" height="10" fill="#000000"/><rect x="10" y="100" width="10" height="10" fill="#000000"/><rect x="30" y="100" width="10" height="10" fill="#000000"/><rect x="90" y="100" width="10" height="10" fill="#000000"/><rect x="110" y="100" width="10" height="10" fill="#000000"/><rect x="160" y="100" width="10" height="10" fill="#000000"/><rect x="170" y="100" width="10" height="10" fill="#000000"/><rect x="200" y="100" width="10" height="10" fill="#000000"/><rect x="210" y="100" width="10" height="10" fill="#000000"/><rect x="230" y="100" width="10" height="10" fill="#000000"/><rect x="240" y="100" width="10" height="10" fill="#000000"/><rect x="250" y="100" width="10" height="10" fill="#000000"/><rect x="290" y="100" width="10" height="10" fill="#000000"/><rect x="40" y="110" width="10" height="10" fill="#000000"/><rect x="70" y="110" width="10" height="10" fill="#000000"/><rect x="80" y="110" width="10" height="10" fill="#000000"/><rect x="100" y="110" width="10" height="10" fill="#000000"/><rect x="110" y="110" width="10" height="10" fill="#000000"/><rect x="130" y="110" width="10" height="10" fill="#000000"/><rect x="210" y="110" width="10" height="10" fill="#000000"/><rect x="220" y="110" width="10" height="10" fill="#000000"/><rect x="240" y="110" width="10" height="10" fill="#000000"/><rect x="250" y="110" width="10" height="10" fill="#000000"/><rect x="20" y="120" width="10" height="10" fill="#000000"/><rect x="40" y="120" width="10" height="10" fill="#000000"/><rect x="50" y="120" width="10" height="10" fill="#000000"/><rect x="60" y="120" width="10" height="10" fill="#000000"/><rect x="80" y="120" width="10" height="10" fill="#000000"/><rect x="100" y="120" width="10" height="10" fill="#000000"/><rect x="150" y="120" width="10" height="10" fill="#000000"/><rect x="170" y="120" width="10" height="10" fill="#000000"/><rect x="200" y="120" width="10" height="10" fill="#000000"/><rect x="210" y="120" width="10" height="10" fill="#000000"/><rect x="220" y="120" width="10" height="10" fill="#000000"/><rect x="230" y="120" width="10" height="10" fill="#000000"/><rect x="250" y="120" width="10" height="10" fill="#000000"/><rect x="260" y="120" width="10" height="10" fill="#000000"/><rect x="280" y="120" width="10" height="10" fill="#000000"/><rect x="30" y="130" width="10" height="10" fill="#000000"/><rect x="40" y="130" width="10" height="10" fill="#000000"/><rect x="50" y="130" width="10" height="10" fill="#000000"/><rect x="60" y="130" width="10" height="10" fill="#000000"/><rect x="70" y="130" width="10" height="10" fill="#000000"/><rect x="80" y="130" width="10" height="10" fill="#000000"/><rect x="100" y="130" width="10" height="10" fill="#000000"/><rect x="110" y="130" width="10" height="10" fill="#000000"/><rect x="120" y="130" width="10" height="10" fill="#000000"/><rect x="130" y="130" width="10" height="10" fill="#000000"/><rect x="170" y="130" width="10" height="10" fill="#000000"/><rect x="180" y="130" width="10" height="10" fill="#000000"/><rect x="200" y="130" width="10" height="10" fill="#000000"/><rect x="260" y="130" width="10" height="10" fill="#000000"/><rect x="270" y="130" width="10" height="10" fill="#000000"/><rect x="20" y="140" width="10" height="10" fill="#000000"/><rect x="40" y="140" width="10" height="10" fill="#000000"/><rect x="60" y="140" width="10" height="10" fill="#000000"/><rect x="100" y="140" width="10" height="10" fill="#000000"/><rect x="110" y="140" width="10" height="10" fill="#000000"/><rect x="130" y="140" width="10" height="10" fill="#000000"/><rect x="140" y="140" width="10" height="10" fill="#000000"/><rect x="150" y="140" width="10" height="10" fill="#000000"/><rect x="160" y="140" width="10" height="10" fill="#000000"/><rect x="190" y="140" width="10" height="10" fill="#000000"/><rect x="200" y="140" width="10" height="10" fill="#000000"/><rect x="220" y="140" width="10" height="10" fill="#000000"/><rect x="230" y="140" width="10" height="10" fill="#000000"/><rect x="240" y="140" width="10" height="10" fill="#000000"/><rect x="250" y="140" width="10" height="10" fill="#000000"/><rect x="290" y="140" width="10" height="10" fill="#000000"/><rect x="10" y="150" width="10" height="10" fill="#000000"/><rect x="20" y="150" width="10" height="10" fill="#000000"/><rect x="30" y="150" width="10" height="10" fill="#000000"/><rect x="60" y="150" width="10" height="10" fill="#000000"/><rect x="70" y="150" width="10" height="10" fill="#000000"/><rect x="80" y="150" width="10" height="10" fill="#000000"/><rect x="90" y="150" width="10" height="10" fill="#000000"/><rect x="100" y="150" width="10" height="10" fill="#000000"/><rect x="120" y="150" width="10" height="10" fill="#000000"/><rect x="130" y="150" width="10" height="10" fill="#000000"/><rect x="140" y="150" width="10" height="10" fill="#000000"/><rect x="150" y="150" width="10" height="10" fill="#000000"/><rect x="160" y="150" width="10" height="10" fill="#000000"/><rect x="170" y="150" width="10" height="10" fill="#000000"/><rect x="210" y="150" width="10" height="10" fill="#000000"/><rect x="260" y="150" width="10" height="10" fill="#000000"/><rect x="270" y="150" width="10" height="10" fill="#000000"/><rect x="20" y="160" width="10" height="10" fill="#000000"/><rect x="80" y="160" width="10" height="10" fill="#000000"/><rect x="90" y="160" width="10" height="10" fill="#000000"/><rect x="110" y="160" width="10" height="10" fill="#000000"/><rect x="120" y="160" width="10" height="10" fill="#000000"/><rect x="140" y="160" width="10" height="10" fill="#000000"/><rect x="160" y="160" width="10" height="10" fill="#000000"/><rect x="210" y="160" width="10" height="10" fill="#000000"/><rect x="230" y="160" width="10" height="10" fill="#000000"/><rect x="240" y="160" width="10" height="10" fill="#000000"/><rect x="280" y="160" width="10" height="10" fill="#000000"/><rect x="50" y="170" width="10" height="10" fill="#000000"/><rect x="70" y="170" width="10" height="10" fill="#000000"/><rect x="80" y="170" width="10" height="10" fill="#000000"/><rect x="100" y="170" width="10" height="10" fill="#000000"/><rect x="110" y="170" width="10" height="10" fill="#000000"/><rect x="130" y="170" width="10" height="10" fill="#000000"/><rect x="150" y="170" width="10" height="10" fill="#000000"/><rect x="160" y="170" width="10" height="10" fill="#000000"/><rect x="180" y="170" width="10" height="10" fill="#000000"/><rect x="190" y="170" width="10" height="10" fill="#000000"/><rect x="260" y="170" width="10" height="10" fill="#000000"/><rect x="270" y="170" width="10" height="10" fill="#000000"/><rect x="10" y="180" width="10" height="10" fill="#000000"/><rect x="30" y="180" width="10" height="10" fill="#000000"/><rect x="60" y="180" width="10" height="10" fill="#000000"/><rect x="90" y="180" width="10" height="10" fill="#000000"/><rect x="110" y="180" width="10" height="10" fill="#000000"/><rect x="120" y="180" width="10" height="10" fill="#000000"/><rect x="160" y="180" width="10" height="10" fill="#000000"/><rect x="170" y="180" width="10" height="10" fill="#000000"/><rect x="180" y="180" width="10" height="10" fill="#000000"/><rect x="190" y="180" width="10" height="10" fill="#000000"/><rect x="200" y="180" width="10" height="10" fill="#000000"/><rect x="210" y="180" width="10" height="10" fill="#000000"/><rect x="230" y="180" width="10" height="10" fill="#000000"/><rect x="240" y="180" width="10" height="10" fill="#000000"/><rect x="250" y="180" width="10" height="10" fill="#000000"/><rect x="270" y="180" width="10" height="10" fill="#000000"/><rect x="290" y="180" width="10" height="10" fill="#000000"/><rect x="10" y="190" width="10" height="10" fill="#000000"/><rect x="30" y="190" width="10" height="10" fill="#000000"/><rect x="60" y="190" width="10" height="10" fill="#000000"/><rect x="70" y="190" width="10" height="10" fill="#000000"/><rect x="80" y="190" width="10" height="10" fill="#000000"/><rect x="100" y="190" width="10" height="10" fill="#000000"/><rect x="110" y="190" width="10" height="10" fill="#000000"/><rect x="120" y="190" width="10" height="10" fill="#000000"/><rect x="180" y="190" width="10" height="10" fill="#000000"/><rect x="210" y="190" width="10" height="10" fill="#000000"/><rect x="240" y="190" width="10" height="10" fill="#000000"/><rect x="250" y="190" width="10" height="10" fill="#000000"/><rect x="270" y="190" width="10" height="10" fill="#000000"/><rect x="10" y="200" width="10" height="10" fill="#000000"/><rect x="50" y="200" width="10" height="10" fill="#000000"/><rect x="80" y="200" width="10" height="10" fill="#000000"/><rect x="120" y="200" width="10" height="10" fill="#000000"/><rect x="130" y="200" width="10" height="10" fill="#000000"/><rect x="150" y="200" width="10" height="10" fill="#000000"/><rect x="170" y="200" width="10" height="10" fill="#000000"/><rect x="210" y="200" width="10" height="10" fill="#000000"/><rect x="240" y="200" width="10" height="10" fill="#000000"/><rect x="250" y="200" width="10" height="10" fill="#000000"/><rect x="280" y="200" width="10" height="10" fill="#000000"/><rect x="10" y="210" width="10" height="10" fill="#000000"/><rect x="40" y="210" width="10" height="10" fill="#000000"/><rect x="50" y="210" width="10" height="10" fill="#000000"/><rect x="60" y="210" width="10" height="10" fill="#000000"/><rect x="70" y="210" width="10" height="10" fill="#000000"/><rect x="100" y="210" width="10" height="10" fill="#000000"/><rect x="120" y="210" width="10" height="10" fill="#000000"/><rect x="170" y="210" width="10" height="10" fill="#000000"/><rect x="190" y="210" width="10" height="10" fill="#000000"/><rect x="200" y="210" width="10" height="10" fill="#000000"/><rect x="210" y="210" width="10" height="10" fill="#000000"/><rect x="220" y="210" width="10" height="10" fill="#000000"/><rect x="230" y="210" width="10" height="10" fill="#000000"/><rect x="240" y="210" width="10" height="10" fill="#000000"/><rect x="250" y="210" width="10" height="10" fill="#000000"/><rect x="270" y="210" width="10" height="10" fill="#000000"/><rect x="280" y="210" width="10" height="10" fill="#000000"/><rect x="290" y="210" width="10" height="10" fill="#000000"/><rect x="90" y="220" width="10" height="10" fill="#000000"/><rect x="120" y="220" width="10" height="10" fill="#000000"/><rect x="140" y="220" width="10" height="10" fill="#000000"/><rect x="150" y="220" width="10" height="10" fill="#000000"/><rect x="160" y="220" width="10" height="10" fill="#000000"/><rect x="180" y="220" width="10" height="10" fill="#000000"/><rect x="190" y="220" width="10" height="10" fill="#000000"/><rect x="210" y="220" width="10" height="10" fill="#000000"/><rect x="250" y="220" width="10" height="10" fill="#000000"/><rect x="260" y="220" width="10" height="10" fill="#000000"/><rect x="270" y="220" width="10" height="10" fill="#000000"/><rect x="280" y="220" width="10" height="10" fill="#000000"/><rect x="290" y="220" width="10" height="10" fill="#000000"/><rect x="130" y="230" width="10" height="10" fill="#000000"/><rect x="140" y="230" width="10" height="10" fill="#000000"/><rect x="150" y="230" width="10" height="10" fill="#000000"/><rect x="160" y="230" width="10" height="10" fill="#000000"/><rect x="170" y="230" width="10" height="10" fill="#000000"/><rect x="180" y="230" width="10" height="10" fill="#000000"/><rect x="200" y="230" width="10" height="10" fill="#000000"/><rect x="210" y="230" width="10" height="10" fill="#000000"/><rect x="230" y="230" width="10" height="10" fill="#000000"/><rect x="250" y="230" width="10" height="10" fill="#000000"/><rect x="260" y="230" width="10" height="10" fill="#000000"/><rect x="270" y="230" width="10" height="10" fill="#000000"/><rect x="90" y="240" width="10" height="10" fill="#000000"/><rect x="110" y="240" width="10" height="10" fill="#000000"/><rect x="120" y="240" width="10" height="10" fill="#000000"/><rect x="140" y="240" width="10" height="10" fill="#000000"/><rect x="160" y="240" width="10" height="10" fill="#000000"/><rect x="180" y="240" width="10" height="10" fill="#000000"/><rect x="190" y="240" width="10" height="10" fill="#000000"/><rect x="200" y="240" width="10" height="10" fill="#000000"/><rect x="210" y="240" width="10" height="10" fill="#000000"/><rect x="250" y="240" width="10" height="10" fill="#000000"/><rect x="290" y="240" width="10" height="10" fill="#000000"/><rect x="90" y="250" width="10" height="10" fill="#000000"/><rect x="110" y="250" width="10" height="10" fill="#000000"/><rect x="120" y="250" width="10" height="10" fill="#000000"/><rect x="150" y="250" width="10" height="10" fill="#000000"/><rect x="160" y="250" width="10" height="10" fill="#000000"/><rect x="210" y="250" width="10" height="10" fill="#000000"/><rect x="220" y="250" width="10" height="10" fill="#000000"/><rect x="230" y="250" width="10" height="10" fill="#000000"/><rect x="240" y="250" width="10" height="10" fill="#000000"/><rect x="250" y="250" width="10" height="10" fill="#000000"/><rect x="270" y="250" width="10" height="10" fill="#000000"/><rect x="280" y="250" width="10" height="10" fill="#000000"/><rect x="290" y="250" width="10" height="10" fill="#000000"/><rect x="90" y="260" width="10" height="10" fill="#000000"/><rect x="100" y="260" width="10" height="10" fill="#000000"/><rect x="130" y="260" width="10" height="10" fill="#000000"/><rect x="140" y="260" width="10" height="10" fill="#000000"/><rect x="160" y="260" width="10" height="10" fill="#000000"/><rect x="170" y="260" width="10" height="10" fill="#000000"/><rect x="190" y="260" width="10" height="10" fill="#000000"/><rect x="210" y="260" width="10" height="10" fill="#000000"/><rect x="260" y="260" width="10" height="10" fill="#000000"/><rect x="270" y="260" width="10" height="10" fill="#000000"/><rect x="90" y="270" width="10" height="10" fill="#000000"/><rect x="100" y="270" width="10" height="10" fill="#000000"/><rect x="110" y="270" width="10" height="10" fill="#000000"/><rect x="120" y="270" width="10" height="10" fill="#000000"/><rect x="140" y="270" width="10" height="10" fill="#000000"/><rect x="150" y="270" width="10" height="10" fill="#000000"/><rect x="190" y="270" width="10" height="10" fill="#000000"/><rect x="200" y="270" width="10" height="10" fill="#000000"/><rect x="210" y="270" width="10" height="10" fill="#000000"/><rect x="220" y="270" width="10" height="10" fill="#000000"/><rect x="230" y="270" width="10" height="10" fill="#000000"/><rect x="240" y="270" width="10" height="10" fill="#000000"/><rect x="250" y="270" width="10" height="10" fill="#000000"/><rect x="260" y="270" width="10" height="10" fill="#000000"/><rect x="270" y="270" width="10" height="10" fill="#000000"/><rect x="280" y="270" width="10" height="10" fill="#000000"/><rect x="100" y="280" width="10" height="10" fill="#000000"/><rect x="140" y="280" width="10" height="10" fill="#000000"/><rect x="150" y="280" width="10" height="10" fill="#000000"/><rect x="170" y="280" width="10" height="10" fill="#000000"/><rect x="210" y="280" width="10" height="10" fill="#000000"/><rect x="230" y="280" width="10" height="10" fill="#000000"/><rect x="250" y="280" width="10" height="10" fill="#000000"/><rect x="260" y="280" width="10" height="10" fill="#000000"/><rect x="280" y="280" width="10" height="10" fill="#000000"/><rect x="90" y="290" width="10" height="10" fill="#000000"/><rect x="100" y="290" width="10" height="10" fill="#000000"/><rect x="130" y="290" width="10" height="10" fill="#000000"/><rect x="140" y="290" width="10" height="10" fill="#000000"/><rect x="170" y="290" width="10" height="10" fill="#000000"/><rect x="190" y="290" width="10" height="10" fill="#000000"/><rect x="240" y="290" width="10" height="10" fill="#000000"/><rect x="270" y="290" width="10" height="10" fill="#000000"/><path d="M 30 10 L 60 10 Q 80 10 80 30 L 80 60 Q 80 80 60 80 L 30 80 Q 10 80 10 60 L 10 30 Q 10 10 30 10 Z M 35 20 L 55 20 Q 70 20 70 35 L 70 55 Q 70 70 55 70 L 35 70 Q 20 70 20 55 L 20 35 Q 20 20 35 20 Z" fill="#000000" fill-rule="evenodd"/><circle cx="45" cy="45" r="15" fill="#000000"/><path d="M 250 10 L 280 10 Q 300 10 300 30 L 300 60 Q 300 80 280 80 L 250 80 Q 230 80 230 60 L 230 30 Q 230 10 250 10 Z M 255 20 L 275 20 Q 290 20 290 35 L 290 55 Q 290 70 275 70 L 255 70 Q 240 70 240 55 L 240 35 Q 240 20 255 20 Z" fill="#000000" fill-rule="evenodd"/><circle cx="265" cy="45" r="15" fill="#000000"/><path d="M 30 230 L 60 230 Q 80 230 80 250 L 80 280 Q 80 300 60 300 L 30 300 Q 10 300 10 280 L 10 250 Q 10 230 30 230 Z M 35 240 L 55 240 Q 70 240 70 255 L 70 275 Q 70 290 55 290 L 35 290 Q 20 290 20 275 L 20 255 Q 20 240 35 240 Z" fill="#000000" fill-rule="evenodd"/><circle cx="45" cy="265" r="15" fill="#000000"/>
</svg>