<?xml version="1.0" encoding="UTF-8"?>
<svg xmlns="http://www.w3.org/2000/svg" viewBox="0 0 310 310" width="310" height="310" shape-rendering="crispEdges">
<rect x="100" y="10" width="10" height="10" fill="#000000"/><rect x="120" y="10" width="10" height="10" fill="#000000"/><rect x="130" y="10" width="10" height="10" fill="#000000"/><rect x="160" y="10" width="10" height="10" fill="#000000"/><rect x="170" y="10" width="10" height="10" fill="#000000"/><rect x="180" y="10" width="10" height="10" fill="#000000"/><rect x="190" y="10" width="10" height="10" fill="#000000"/><rect x="200" y="10" width="10" height="10" fill="#000000"/><rect x="180" y="20" width="10" height="10" fill="#000000"/><rect x="210" y="20" width="10" height="10" fill="#000000"/><rect x="90" y="30" width="10" height="10" fill="#000000"/><rect x="120" y="30" width="10" height="10" fill="#000000"/><rect x="150" y="30" width="10" height="10" fill="#000000"/><rect x="170" y="30" width="10" height="10" fill="#000000"/><rect x="210" y="30" width="10" height="10" fill="#000000"/><rect x="90" y="40" width="10" height="10" fill="#000000"/><rect x="100" y="40" width="10" height="10" fill="#000000"/><rect x="130" y="40" width="10" height="10" fill="#000000"/><rect x="170" y="40" width="10" height="10" fill="#000000"/><rect x="180" y="40" width="10" height="10" fill="#000000"/><rect x="210" y="40" width="10" height="10" fill="#000000"/><rect x="90" y="50" width="10" height="10" fill="#000000"/><rect x="100" y="50" width="10" height="10" fill="#000000"/><rect x="120" y="50" width="10" height="10" fill="#000000"/><rect x="130" y="50" width="10" height="10" fill="#000000"/><rect x="140" y="50" width="10" height="10" fill="#000000"/><rect x="150" y="50" width="10" height="10" fill="#000000"/><rect x="160" y="50" width="10" height="10" fill="#000000"/><rect x="200" y="50" width="10" height="10" fill="#000000"/><rect x="210" y="50" width="10" height="10" fill="#000000"/><rect x="90" y="60" width="10" height="10" fill="#000000"/><rect x="100" y="60" width="10" height="10" fill="#000000"/><rect x="130" y="60" width="10" height="10" fill="#000000"/><rect x="140" y="60" width="10" height="10" fill="#000000"/><rect x="150" y="60" width="10" height="10" fill="#000000"/><rect x="160" y="60" width="10" height="10" fill="#000000"/><rect x="170" y="60" width="10" height="10" fill="#000000"/><rect x="180" y="60" width="10" height="10" fill="#000000"/><rect x="190" y="60" width="10" height="10" fill="#000000"/><rect x="90" y="70" width="10" height="10" fill="#000000"/><rect x="110" y="70" width="10" height="10" fill="#000000"/><rect x="130" y="70" width="10" height="10" fill="#000000"/><rect x="150" y="70" width="10" height="10" fill="#000000"/><rect x="170" y="70" width="10" height="10" fill="#000000"/><rect x="190" y="70" width="10" height="10" fill="#000000"/><rect x="210" y="70" width="10" height="10" fill="#000000"/><rect x="90" y="80" width="10" height="10" fill="#000000"/><rect x="110" y="80" width="10" height="10" fill="#000000"/><rect x="140" y="80" width="10" height="10" fill="#000000"/><rect x="160" y="80" width="10" height="10" fill="#000000"/><rect x="190" y="80" width="10" height="10" fill="#000000"/><rect x="200" y="80" width="10" height="10" fill="#000000"/><rect x="10" y="90" width="10" height="10" fill="#000000"/><rect x="30" y="90" width="10" height="10" fill="#000000"/><rect x="40" y="90" width="10" height="10" fill="#000000"/><rect x="50" y="90" width="10" height="10" fill="#000000"/><rect x="60" y="90" width="10" height="10" fill="#000000"/><rect x="70" y="90" width="10" height="10" fill="#000000"/><rect x="100" y="90" width="10" height="10" fill="#000000"/><rect x="150" y="90" width="10" height="10" fill="#000000"/><rect x="160" y="90" width="10" height="10" fill="#000000"/><rect x="180" y="90" width="10" height="10" fill="#000000"/><rect x="210" y="90" width="10" height="10" fill="#000000"/><rect x="230" y="90" width="10" height="10" fill="#000000"/><rect x="240" y="90" width="10" height="10" fill="#000000"/><rect x="250" y="90" width="10" height="10" fill="#000000"/><rect x="260" y="90" width="10" height="10" fill="#000000"/><rect x="270" y="90" width="10" height="10" fill="#000000"/><rect x="10" y="100" width="10" height="10" fill="#000000"/><rect x="30" y="100" width="10" height="10" fill="#000000"/><rect x="50" y="100" width="10" height="10" fill="#000000"/><rect x="60" y="100" width="10" height="10" fill="#000000"/><rect x="90" y="100" width="10" height="10" fill="#000000"/><rect x="120" y="100" width="10" height="10" fill="#000000"/><rect x="160" y="100" width="10" height="10" fill="#000000"/><rect x="170" y="100" width="10" height="10" fill="#000000"/><rect x="190" y="100" width="10" height="10" fill="#000000"/><rect x="200" y="100" width="10" height="10" fill="#000000"/><rect x="210" y="100" width="10" height="10" fill="#000000"/><rect x="230" y="100" width="10" height="10" fill="#000000"/><rect x="240" y="100" width="10" height="10" fill="#000000"/><rect x="250" y="100" width="10" height="10" fill="#000000"/><rect x="290" y="100" width="10" height="10" fill="#000000"/><rect x="10" y="110" width="10" height="10" fill="#000000"/><rect x="50" y="110" width="10" height="10" fill="#000000"/><rect x="70" y="110" width="10" height="10" fill="#000000"/><rect x="80" y="110" width="10" height="10" fill="#000000"/><rect x="90" y="110" width="10" height="10" fill="#000000"/><rect x="110" y="110" width="10" height="10" fill="#000000"/><rect x="120" y="110" width="10" height="10" fill="#000000"/><rect x="130" y="110" width="10" height="10" fill="#000000"/><rect x="210" y="110" width="10" height="10" fill="#000000"/><rect x="220" y="110" width="10" height="10" fill="#000000"/><rect x="240" y="110" width="10" height="10" fill="#000000"/><rect x="250" y="110" width="10" height="10" fill="#000000"/><rect x="10" y="120" width="10" height="10" fill="#000000"/><rect x="30" y="120" width="10" height="10" fill="#000000"/><rect x="40" y="120" width="10" height="10" fill="#000000"/><rect x="60" y="120" width="10" height="10" fill="#000000"/><rect x="90" y="120" width="10" height="10" fill="#000000"/><rect x="100" y="120" width="10" height="10" fill="#000000"/><rect x="120" y="120" width="10" height="10" fill="#000000"/><rect x="130" y="120" width="10" height="10" fill="#000000"/><rect x="150" y="120" width="10" height="10" fill="#000000"/><rect x="170" y="120" width="10" height="10" fill="#000000"/><rect x="200" y="120" width="10" height="10" fill="#000000"/><rect x="210" y="120" width="10" height="10" fill="#000000"/><rect x="220" y="120" width="10" height="10" fill="#000000"/><rect x="230" y="120" width="10" height="10" fill="#000000"/><rect x="250" y="120" width="10" height="10" fill="#000000"/><rect x="260" y="120" width="10" height="10" fill="#000000"/><rect x="280" y="120" width="10" height="10" fill="#000000"/><rect x="10" y="130" width="10" height="10" fill="#000000"/><rect x="20" y="130" width="10" height="10" fill="#000000"/><rect x="40" y="130" width="10" height="10" fill="#000000"/><rect x="70" y="130" width="10" height="10" fill="#000000"/><rect x="100" y="130" width="10" height="10" fill="#000000"/><rect x="130" y="130" width="10" height="10" fill="#000000"/><rect x="170" y="130" width="10" height="10" fill="#000000"/><rect x="180" y="130" width="10" height="10" fill="#000000"/><rect x="200" y="130" width="10" height="10" fill="#000000"/><rect x="260" y="130" width="10" height="10" fill="#000000"/><rect x="270" y="130" width="10" height="10" fill="#000000"/><rect x="10" y="140" width="10" height="10" fill="#000000"/><rect x="30" y="140" width="10" height="10" fill="#000000"/><rect x="80" y="140" width="10" height="10" fill="#000000"/><rect x="90" y="140" width="10" height="10" fill="#000000"/><rect x="120" y="140" width="10" height="10" fill="#000000"/><rect x="130" y="140" width="10" height="10" fill="#000000"/><rect x="140" y="140" width="10" height="10" fill="#000000"/><rect x="150" y="140" width="10" height="10" fill="#000000"/><rect x="160" y="140" width="10" height="10" fill="#000000"/><rect x="190" y="140" width="10" height="10" fill="#000000"/><rect x="200" y="140" width="10" height="10" fill="#000000"/><rect x="220" y="140" width="10" height="10" fill="#000000"/><rect x="230" y="140" width="10" height="10" fill="#000000"/><rect x="240" y="140" width="10" height="10" fill="#000000"/><rect x="250" y="140" width="10" height="10" fill="#000000"/><rect x="290" y="140" width="10" height="10" fill="#000000"/><rect x="10" y="150" width="10" height="10" fill="#000000"/><rect x="20" y="150" width="10" height="10" fill="#000000"/><rect x="70" y="150" width="10" height="10" fill="#000000"/><rect x="80" y="150" width="10" height="10" fill="#000000"/><rect x="90" y="150" width="10" height="10" fill="#000000"/><rect x="100" y="150" width="10" height="10" fill="#000000"/><rect x="110" y="150" width="10" height="10" fill="#000000"/><rect x="120" y="150" width="10" height="10" fill="#000000"/><rect x="140" y="150" width="10" height="10" fill="#000000"/><rect x="150" y="150" width="10" height="10" fill="#000000"/><rect x="160" y="150" width="10" height="10" fill="#000000"/><rect x="170" y="150" width="10" height="10" fill="#000000"/><rect x="190" y="150" width="10" height="10" fill="#000000"/><rect x="210" y="150" width="10" height="10" fill="#000000"/><rect x="260" y="150" width="10" height="10" fill="#000000"/><rect x="270" y="150" width="10" height="10" fill="#000000"/><rect x="10" y="160" width="10" height="10" fill="#000000"/><rect x="50" y="160" width="10" height="10" fill="#000000"/><rect x="80" y="160" width="10" height="10" fill="#000000"/><rect x="90" y="160" width="10" height="10" fill="#000000"/><rect x="120" y="160" width="10" height="10" fill="#000000"/><rect x="140" y="160" width="10" height="10" fill="#000000"/><rect x="160" y="160" width="10" height="10" fill="#000000"/><rect x="210" y="160" width="10" height="10" fill="#000000"/><rect x="230" y="160" width="10" height="10" fill="#000000"/><rect x="240" y="160" width="10" height="10" fill="#000000"/><rect x="280" y="160" width="10" height="10" fill="#000000"/><rect x="40" y="170" width="10" height="10" fill="#000000"/><rect x="50" y="170" width="10" height="10" fill="#000000"/><rect x="60" y="170" width="10" height="10" fill="#000000"/><rect x="70" y="170" width="10" height="10" fill="#000000"/><rect x="80" y="170" width="10" height="10" fill="#000000"/><rect x="150" y="170" width="10" height="10" fill="#000000"/><rect x="160" y="170" width="10" height="10" fill="#000000"/><rect x="180" y="170" width="10" height="10" fill="#000000"/><rect x="260" y="170" width="10" height="10" fill="#000000"/><rect x="270" y="170" width="10" height="10" fill="#000000"/><rect x="10" y="180" width="10" height="10" fill="#000000"/><rect x="20" y="180" width="10" height="10" fill="#000000"/><rect x="60" y="180" width="10" height="10" fill="#000000"/><rect x="90" y="180" width="10" height="10" fill="#000000"/><rect x="110" y="180" width="10" height="10" fill="#000000"/><rect x="160" y="180" width="10" height="10" fill="#000000"/><rect x="170" y="180" width="10" height="10" fill="#000000"/><rect x="190" y="180" width="10" height="10" fill="#000000"/><rect x="200" y="180" width="10" height="10" fill="#000000"/><rect x="210" y="180" width="10" height="10" fill="#000000"/><rect x="230" y="180" width="10" height="10" fill="#000000"/><rect x="240" y="180" width="10" height="10" fill="#000000"/><rect x="250" y="180" width="10" height="10" fill="#000000"/><rect x="270" y="180" width="10" height="10" fill="#000000"/><rect x="290" y="180" width="10" height="10" fill="#000000"/><rect x="10" y="190" width="10" height="10" fill="#000000"/><rect x="40" y="190" width="10" height="10" fill="#000000"/><rect x="50" y="190" width="10" height="10" fill="#000000"/><rect x="60" y="190" width="10" height="10" fill="#000000"/><rect x="70" y="190" width="10" height="10" fill="#000000"/><rect x="120" y="190" width="10" height="10" fill="#000000"/><rect x="180" y="190" width="10" height="10" fill="#000000"/><rect x="190" y="190" width="10" height="10" fill="#000000"/><rect x="210" y="190" width="10" height="10" fill="#000000"/><rect x="240" y="190" width="10" height="10" fill="#000000"/><rect x="250" y="190" width="10" height="10" fill="#000000"/><rect x="270" y="190" width="10" height="10" fill="#000000"/><rect x="10" y="200" width="10" height="10" fill="#000000"/><rect x="30" y="200" width="10" height="10" fill="#000000"/><rect x="120" y="200" width="10" height="10" fill="#000000"/><rect x="150" y="200" width="10" height="10" fill="#000000"/><rect x="170" y="200" width="10" height="10" fill="#000000"/><rect x="210" y="200" width="10" height="10" fill="#000000"/><rect x="240" y="200" width="10" height="10" fill="#000000"/><rect x="250" y="200" width="10" height="10" fill="#000000"/><rect x="280" y="200" width="10" height="10" fill="#000000"/><rect x="10" y="210" width="10" height="10" fill="#000000"/><rect x="30" y="210" width="10" height="10" fill="#000000"/><rect x="40" y="210" width="10" height="10" fill="#000000"/><rect x="50" y="210" width="10" height="10" fill="#000000"/><rect x="60" y="210" width="10" height="10" fill="#000000"/><rect x="70" y="210" width="10" height="10" fill="#000000"/><rect x="110" y="210" width="10" height="10" fill="#000000"/><rect x="120" y="210" width="10" height="10" fill="#000000"/><rect x="130" y="210" width="10" height="10" fill="#000000"/><rect x="170" y="210" width="10" height="10" fill="#000000"/><rect x="180" y="210" width="10" height="10" fill="#000000"/><rect x="200" y="210" width="10" height="10" fill="#000000"/><rect x="210" y="210" width="10" height="10" fill="#000000"/><rect x="220" y="210" width="10" height="10" fill="#000000"/><rect x="230" y="210" width="10" height="10" fill="#000000"/><rect x="240" y="210" width="10" height="10" fill="#000000"/><rect x="250" y="210" width="10" height="10" fill="#000000"/><rect x="270" y="210" width="10" height="10" fill="#000000"/><rect x="280" y="210" width="10" height="10" fill="#000000"/><rect x="290" y="210" width="10" height="10" fill="#000000"/><rect x="90" y="220" width="10" height="10" fill="#000000"/><rect x="100" y="220" width="10" height="10" fill="#000000"/><rect x="110" y="220" width="10" height="10" fill="#000000"/><rect x="130" y="220" width="10" height="10" fill="#000000"/><rect x="140" y="220" width="10" height="10" fill="#000000"/><rect x="150" y="220" width="10" height="10" fill="#000000"/><rect x="160" y="220" width="10" height="10" fill="#000000"/><rect x="210" y="220" width="10" height="10" fill="#000000"/><rect x="250" y="220" width="10" height="10" fill="#000000"/><rect x="260" y="220" width="10" height="10" fill="#000000"/><rect x="270" y="220" width="10" height="10" fill="#000000"/><rect x="280" y="220" width="10" height="10" fill="#000000"/><rect x="290" y="220" width="10" height="10" fill="#000000"/><rect x="100" y="230" width="10" height="10" fill="#000000"/><rect x="110" y="230" width="10" height="10" fill="#000000"/><rect x="140" y="230" width="10" height="10" fill="#000000"/><rect x="150" y="230" width="10" height="10" fill="#000000"/><rect x="160" y="230" width="10" height="10" fill="#000000"/><rect x="170" y="230" width="10" height="10" fill="#000000"/><rect x="200" y="230" width="10" height="10" fill="#000000"/><rect x="210" y="230" width="10" height="10" fill="#000000"/><rect x="230" y="230" width="10" height="10" fill="#000000"/><rect x="250" y="230" width="10" height="10" fill="#000000"/><rect x="260" y="230" width="10" height="10" fill="#000000"/><rect x="270" y="230" width="10" height="10" fill="#000000"/><rect x="90" y="240" width="10" height="10" fill="#000000"/><rect x="100" y="240" width="10" height="10" fill="#000000"/><rect x="110" y="240" width="10" height="10" fill="#000000"/><rect x="120" y="240" width="10" height="10" fill="#000000"/><rect x="140" y="240" width="10" height="10" fill="#000000"/><rect x="160" y="240" width="10" height="10" fill="#000000"/><rect x="190" y="240" width="10" height="10" fill="#000000"/><rect x="200" y="240" width="10" height="10" fill="#000000"/><rect x="210" y="240" width="10" height="10" fill="#000000"/><rect x="250" y="240" width="10" height="10" fill="#000000"/><rect x="90" y="250" width="10" height="10" fill="#000000"/><rect x="110" y="250" width="10" height="10" fill="#000000"/><rect x="120" y="250" width="10" height="10" fill="#000000"/><rect x="130" y="250" width="10" height="10" fill="#000000"/><rect x="150" y="250" width="10" height="10" fill="#000000"/><rect x="160" y="250" width="10" height="10" fill="#000000"/><rect x="180" y="250" width="10" height="10" fill="#000000"/><rect x="190" y="250" width="10" height="10" fill="#000000"/><rect x="210" y="250" width="10" height="10" fill="#000000"/><rect x="220" y="250" width="10" height="10" fill="#000000"/><rect x="230" y="250" width="10" height="10" fill="#000000"/><rect x="240" y="250" width="10" height="10" fill="#000000"/><rect x="250" y="250" width="10" height="10" fill="#000000"/><rect x="270" y="250" width="10" height="10" fill="#000000"/><rect x="290" y="250" width="10" height="10" fill="#000000"/><rect x="90" y="260" width="10" height="10" fill="#000000"/><rect x="100" y="260" width="10" height="10" fill="#000000"/><rect x="120" y="260" width="10" height="10" fill="#000000"/><rect x="130" y="260" width="10" height="10" fill="#000000"/><rect x="140" y="260" width="10" height="10" fill="#000000"/><rect x="160" y="260" width="10" height="10" fill="#000000"/><rect x="170" y="260" width="10" height="10" fill="#000000"/><rect x="180" y="260" width="10" height="10" fill="#000000"/><rect x="190" y="260" width="10" height="10" fill="#000000"/><rect x="210" y="260" width="10" height="10" fill="#000000"/><rect x="260" y="260" width="10" height="10" fill="#000000"/><rect x="270" y="260" width="10" height="10" fill="#000000"/><rect x="90" y="270" width="10" height="10" fill="#000000"/><rect x="120" y="270" width="10" height="10" fill="#000000"/><rect x="130" y="270" width="10" height="10" fill="#000000"/><rect x="140" y="270" width="10" height="10" fill="#000000"/><rect x="180" y="270" width="10" height="10" fill="#000000"/><rect x="200" y="270" width="10" height="10" fill="#000000"/><rect x="210" y="270" width="10" height="10" fill="#000000"/><rect x="220" y="270" width="10" height="10" fill="#000000"/><rect x="230" y="270" width="10" height="10" fill="#000000"/><rect x="240" y="270" width="10" height="10" fill="#000000"/><rect x="250" y="270" width="10" height="10" fill="#000000"/><rect x="260" y="270" width="10" height="10" fill="#000000"/><rect x="270" y="270" width="10" height="10" fill="#000000"/><rect x="280" y="270" width="10" height="10" fill="#000000"/><rect x="130" y="280" width="10" height="10" fill="#000000"/><rect x="140" y="280" width="10" height="10" fill="#000000"/><rect x="150" y="280" width="10" height="10" fill="#000000"/><rect x="170" y="280" width="10" height="10" fill="#000000"/><rect x="210" y="280" width="10" height="10" fill="#000000"/><rect x="230" y="280" width="10" height="10" fill="#000000"/><rect x="250" y="280" width="10" height="10" fill="#000000"/><rect x="260" y="280" width="10" height="10" fill="#000000"/><rect x="280" y="280" width="10" height="10" fill="#000000"/><rect x="90" y="290" width="10" height="10" fill="#000000"/><rect x="100" y="290" width="10" height="10" fill="#000000"/><rect x="120" y="290" width="10" height="10" fill="#000000"/><rect x="140" y="290" width="10" height="10" fill="#000000"/><rect x="190" y="290" width="10" height="10" fill="#000000"/><rect x="240" y="290" width="10" height="10" fill="#000000"/><rect x="270" y="290" width="10" height="10" fill="#000000"/><path d="M 10 10 L 80 10 L 80 80 L 10 80 Z M 20 20 L 70 20 L 70 70 L 20 70 Z" fill="#000000" fill-rule="evenodd" shape-rendering="crispEdges"/><rect x="30" y="30" width="30" height="30" fill="#000000" shape-rendering="crispEdges"/><path d="M 230 10 L 300 10 L 300 80 L 230 80 Z M 240 20 L 290 20 L 290 70 L 240 70 Z" fill="#000000" fill-rule="evenodd" shape-rendering="crispEdges"/><rect x="250" y="30" width="30" height="30" fill="#000000" shape-rendering="crispEdges"/><path d="M 10 230 L 80 230 L 80 300 L 10 300 Z M 20 240 L 70 240 L 70 290 L 20 290 Z" fill="#000000" fill-rule="evenodd" shape-rendering="crispEdges"/><rect x="30" y="250" width="30" height="30" fill="#000000" shape-rendering="crispEdges"/>
</svg>